#!OML:ASF C:\Vicon Data\Big\jianyuan-12\jianyuan\Session 1\Capture.male.ASF
:FULLY-SPECIFIED
:DEGREES
153
root -7.370029 17.098059 -11.302993 6.535705 3.525914 4.823486
lowerback -12.138222 1.550570 -6.761358 
upperback 1.304045 3.225659 -2.606760 
thorax 8.010547 1.301213 1.625510 
lowerneck -3.601693 -6.495283 -5.369115 
upperneck 8.129465 -9.200679 8.404083 
head 3.647986 -4.425752 2.988035 
rclavicle 0.000000 0.000000 
rhumerus -32.202984 -26.032408 -82.264165 
rradius 38.700357 
rwrist 29.891183 
rhand -19.177215 -5.272969 
rfingers 0.000000 
rthumb 7.134098 -35.132761 
lclavicle 0.000000 0.000000 
lhumerus -45.487758 36.735669 64.548486 
lradius 25.988544 
lwrist -56.202843 
lhand -8.059625 4.604030 
lfingers 0.000000 
lthumb 17.851472 33.804705 
rfemur -0.518928 -4.094872 13.529663 
rtibia 43.091154 
rfoot -11.631967 -3.605160 
rtoes -14.343978 
lfemur -26.522711 -2.923179 -26.838962 
ltibia 24.008853 
lfoot -10.941210 5.155746 
ltoes -17.164517 
154
root -7.345961 17.103445 -11.227055 6.584686 3.507981 5.046529
lowerback -12.183032 1.518732 -6.979438 
upperback 1.279288 3.218576 -2.645324 
thorax 8.001523 1.288449 1.705593 
lowerneck -3.715983 -6.490633 -5.335499 
upperneck 8.232393 -9.189987 8.307241 
head 3.691187 -4.418516 2.948827 
rclavicle 0.000000 0.000000 
rhumerus -32.616383 -26.254093 -81.959253 
rradius 38.485103 
rwrist 30.198428 
rhand -19.110190 -5.238167 
rfingers 0.000000 
rthumb 7.198794 -35.095742 
lclavicle 0.000000 0.000000 
lhumerus -45.241099 36.759179 64.799122 
lradius 25.984845 
lwrist -56.212698 
lhand -8.150617 4.616857 
lfingers 0.000000 
lthumb 17.763935 33.825444 
rfemur -1.179783 -4.514022 13.086610 
rtibia 44.408700 
rfoot -10.743681 -3.752478 
rtoes -13.921692 
lfemur -26.263990 -2.864182 -27.193773 
ltibia 24.017807 
lfoot -11.150257 4.994191 
ltoes -17.303181 
155
root -7.323255 17.108443 -11.151588 6.643916 3.511202 5.201428
lowerback -12.244185 1.491579 -7.125714 
upperback 1.245002 3.207818 -2.672564 
thorax 7.994639 1.277233 1.757659 
lowerneck -3.674471 -6.503815 -5.358948 
upperneck 8.182682 -9.202910 8.300201 
head 3.670972 -4.427473 2.951720 
rclavicle 0.000000 0.000000 
rhumerus -33.028859 -26.528258 -81.645434 
rradius 38.228694 
rwrist 30.618901 
rhand -19.044992 -5.152896 
rfingers 0.000000 
rthumb 7.261707 -35.008292 
lclavicle 0.000000 0.000000 
lhumerus -44.927347 36.611767 65.173888 
lradius 26.013244 
lwrist -55.964329 
lhand -8.145353 4.637444 
lfingers 0.000000 
lthumb 17.768982 33.845594 
rfemur -1.861950 -4.895814 12.742911 
rtibia 45.752044 
rfoot -9.980179 -3.907144 
rtoes -13.421971 
lfemur -26.005851 -2.824679 -27.462987 
ltibia 23.991630 
lfoot -11.474096 4.886946 
ltoes -16.248659 
156
root -7.300189 17.113179 -11.078275 6.705116 3.475551 5.367930
lowerback -12.290626 1.453391 -7.290260 
upperback 1.205969 3.182714 -2.690016 
thorax 7.973926 1.258718 1.827069 
lowerneck -3.705466 -6.477575 -5.422275 
upperneck 8.212421 -9.160241 8.269552 
head 3.683480 -4.407903 2.953589 
rclavicle 0.000000 0.000000 
rhumerus -33.415811 -26.722542 -81.295920 
rradius 37.956722 
rwrist 31.127585 
rhand -18.951645 -5.021558 
rfingers 0.000000 
rthumb 7.351805 -34.873796 
lclavicle 0.000000 0.000000 
lhumerus -44.657152 36.504571 65.525480 
lradius 26.074967 
lwrist -55.741265 
lhand -8.121080 4.614427 
lfingers 0.000000 
lthumb 17.792292 33.820435 
rfemur -2.597904 -5.243378 12.383751 
rtibia 47.110869 
rfoot -9.265062 -4.143654 
rtoes -12.533942 
lfemur -25.742404 -2.817766 -27.743876 
ltibia 23.942910 
lfoot -11.778518 4.868102 
ltoes -15.854575 
157
root -7.276665 17.119323 -11.005206 6.721391 3.384266 5.610874
lowerback -12.297453 1.416220 -7.520789 
upperback 1.192065 3.167050 -2.718021 
thorax 7.954623 1.241450 1.922378 
lowerneck -3.723733 -6.476435 -5.506125 
upperneck 8.188598 -9.146457 8.243680 
head 3.680954 -4.403837 2.959529 
rclavicle 0.000000 0.000000 
rhumerus -33.737666 -26.647558 -81.108345 
rradius 37.741268 
rwrist 31.131530 
rhand -18.994647 -5.191892 
rfingers 0.000000 
rthumb 7.310315 -35.045576 
lclavicle 0.000000 0.000000 
lhumerus -44.462450 36.574491 65.762428 
lradius 26.130669 
lwrist -55.843555 
lhand -8.142127 4.540719 
lfingers 0.000000 
lthumb 17.772066 33.748594 
rfemur -3.302273 -5.552186 11.929445 
rtibia 48.480519 
rfoot -8.497210 -4.494999 
rtoes -12.067800 
lfemur -25.412118 -2.726540 -28.121507 
ltibia 23.872976 
lfoot -11.992502 4.784697 
ltoes -16.048987 
158
root -7.250110 17.123390 -10.932366 6.662521 3.330100 5.813476
lowerback -12.211899 1.366911 -7.675087 
upperback 1.188819 3.115818 -2.750278 
thorax 7.901112 1.211969 1.961285 
lowerneck -3.691686 -6.435924 -5.599596 
upperneck 8.110744 -9.083225 8.278370 
head 3.653475 -4.375534 2.990720 
rclavicle 0.000000 0.000000 
rhumerus -34.087916 -26.663215 -80.896073 
rradius 37.500415 
rwrist 31.236870 
rhand -19.014334 -5.180931 
rfingers 0.000000 
rthumb 7.291346 -35.035302 
lclavicle 0.000000 0.000000 
lhumerus -44.180977 36.495337 66.110385 
lradius 26.184484 
lwrist -55.688511 
lhand -8.163816 4.653699 
lfingers 0.000000 
lthumb 17.751215 33.863504 
rfemur -3.930891 -5.875654 11.499617 
rtibia 49.857248 
rfoot -7.861779 -4.696372 
rtoes -12.219026 
lfemur -24.988338 -2.735238 -28.441680 
ltibia 23.785606 
lfoot -12.242928 4.728584 
ltoes -16.170544 
159
root -7.223256 17.128318 -10.861864 6.679742 3.215460 6.187940
lowerback -12.151716 1.349363 -8.027930 
upperback 1.153218 3.137211 -2.841279 
thorax 7.814810 1.210906 2.060968 
lowerneck -3.779862 -6.399613 -5.578062 
upperneck 8.182264 -9.036344 8.265521 
head 3.684752 -4.349146 2.982365 
rclavicle 0.000000 0.000000 
rhumerus -34.512464 -26.923800 -80.566431 
rradius 37.290530 
rwrist 31.619267 
rhand -18.926053 -5.098567 
rfingers 0.000000 
rthumb 7.376560 -34.949947 
lclavicle 0.000000 0.000000 
lhumerus -43.882440 36.392926 66.457085 
lradius 26.242334 
lwrist -55.481195 
lhand -8.140884 4.716740 
lfingers 0.000000 
lthumb 17.773323 33.924520 
rfemur -4.673907 -6.238126 10.854318 
rtibia 51.238090 
rfoot -6.956064 -4.924866 
rtoes -12.500681 
lfemur -24.629512 -2.699273 -28.948291 
ltibia 23.677224 
lfoot -12.487338 4.664283 
ltoes -15.966855 
160
root -7.200979 17.132388 -10.789940 6.692926 3.182984 6.303081
lowerback -12.135548 1.299592 -8.114727 
upperback 1.137384 3.081730 -2.878262 
thorax 7.791594 1.181553 2.059040 
lowerneck -3.776779 -6.352792 -5.519771 
upperneck 8.113866 -8.972132 8.267102 
head 3.656562 -4.316718 2.978499 
rclavicle 0.000000 0.000000 
rhumerus -34.855429 -27.102790 -80.378163 
rradius 37.029923 
rwrist 31.925658 
rhand -18.871465 -5.082679 
rfingers 0.000000 
rthumb 7.429222 -34.932241 
lclavicle 0.000000 0.000000 
lhumerus -43.529365 36.172904 66.844757 
lradius 26.379370 
lwrist -55.036226 
lhand -8.097764 4.651232 
lfingers 0.000000 
lthumb 17.814786 33.855250 
rfemur -5.467687 -6.593886 10.585523 
rtibia 52.617288 
rfoot -6.166911 -5.420024 
rtoes -12.689051 
lfemur -24.301392 -2.622700 -29.162169 
ltibia 23.579803 
lfoot -12.679331 4.504026 
ltoes -15.828532 
161
root -7.180128 17.138346 -10.716023 6.668525 3.036642 6.464664
lowerback -12.123752 1.282953 -8.272716 
upperback 1.147900 3.082712 -2.911942 
thorax 7.790880 1.174841 2.110432 
lowerneck -3.746323 -6.320042 -5.556801 
upperneck 7.969642 -8.919494 8.316349 
head 3.608252 -4.292276 3.005274 
rclavicle 0.000000 0.000000 
rhumerus -35.147698 -27.253571 -80.167123 
rradius 36.739356 
rwrist 32.245534 
rhand -18.789467 -5.054197 
rfingers 0.000000 
rthumb 7.508337 -34.900931 
lclavicle 0.000000 0.000000 
lhumerus -43.177091 36.074031 67.179216 
lradius 26.432132 
lwrist -54.896287 
lhand -8.200319 4.546307 
lfingers 0.000000 
lthumb 17.716054 33.759259 
rfemur -6.269486 -6.841319 10.287335 
rtibia 53.992505 
rfoot -5.287066 -5.948641 
rtoes -12.724698 
lfemur -23.912632 -2.568817 -29.414233 
ltibia 23.453711 
lfoot -12.911949 4.509981 
ltoes -15.932684 
162
root -7.159588 17.141955 -10.645070 6.655857 2.878595 6.724086
lowerback -12.056157 1.266113 -8.516428 
upperback 1.137410 3.088178 -2.967374 
thorax 7.732336 1.169404 2.184626 
lowerneck -3.843471 -6.299138 -5.518580 
upperneck 8.003750 -8.883245 8.232574 
head 3.626643 -4.273170 2.972432 
rclavicle 0.000000 0.000000 
rhumerus -35.435091 -27.289804 -79.975584 
rradius 36.426876 
rwrist 32.471154 
rhand -18.853727 -5.037350 
rfingers 0.000000 
rthumb 7.446311 -34.886293 
lclavicle 0.000000 0.000000 
lhumerus -42.795895 35.831919 67.679699 
lradius 26.584401 
lwrist -54.599235 
lhand -8.259160 4.700289 
lfingers 0.000000 
lthumb 17.659461 33.918346 
rfemur -7.102356 -7.083327 9.839712 
rtibia 55.377825 
rfoot -4.470094 -6.460432 
rtoes -11.277928 
lfemur -23.540174 -2.438991 -29.787094 
ltibia 23.322008 
lfoot -13.112453 4.438198 
ltoes -15.920656 
